<?xml version="1.0" encoding="UTF-8"?>
<svg width="24px" height="24px" viewBox="0 0 24 24" version="1.1" xmlns="http://www.w3.org/2000/svg" xmlns:xlink="http://www.w3.org/1999/xlink">
    <!-- Generator: Sketch 60.1 (88133) - https://sketch.com -->
    <title>behance</title>
    <desc>Created with Sketch.</desc>
    <g id="behance" stroke="none" stroke-width="1" fill="none" fill-rule="evenodd">
        <g id="Behance" transform="translate(0.000000, 4.000000)" fill="#000000" fill-rule="nonzero">
            <path d="M11.69,8.59 C11.2101634,7.90527653 10.5004497,7.41557409 9.69,7.21 C10.2828426,6.94656759 10.7940002,6.52866168 11.17,6 C11.5278413,5.4474725 11.7059854,4.7977703 11.68,4.14 C11.6995028,3.54499713 11.5832288,2.95336777 11.34,2.41 C11.11359,1.953438 10.7680962,1.56648502 10.34,1.29 C9.88767513,0.991805755 9.38157699,0.784611214 8.85,0.68 C8.24202747,0.548801477 7.62196506,0.481767702 7,0.48 L0,0.48 L0,15.24 L7.16,15.24 C7.80786947,15.24651 8.45366745,15.1657853 9.08,15 C9.68328739,14.8559607 10.2535064,14.5980045 10.76,14.24 C11.2528994,13.894827 11.6544416,13.4349409 11.93,12.9 C12.2277203,12.3117801 12.375434,11.6590917 12.36,11 C12.3945064,10.1463311 12.1601558,9.30336856 11.69,8.59 L11.69,8.59 Z M3.25,3 L6.25,3 C6.53185963,3.00087522 6.8130423,3.02765452 7.09,3.08 C7.34263127,3.11451532 7.58482315,3.2032053 7.8,3.34 C8.01134351,3.4595547 8.18465334,3.63633073 8.3,3.85 C8.4339556,4.11279317 8.49931312,4.40518206 8.49,4.7 C8.54088576,5.18636775 8.35926209,5.66822644 8,6 C7.58093891,6.28924975 7.0786616,6.43325933 6.57,6.41 L3.25,6.41 L3.25,3 Z M8.92,11.74 C8.79916511,11.9773512 8.62029073,12.1803048 8.4,12.33 C8.16476595,12.4822949 7.90388645,12.5907124 7.63,12.65 C7.33055144,12.7110993 7.02561574,12.7412578 6.72,12.7400378 L3.25,12.7400378 L3.25,8.66 L6.78,8.66 C7.38543746,8.62932785 7.98377019,8.80178846 8.48,9.15 C8.943113,9.55875078 9.18128688,10.1653499 9.12,10.78 C9.13718795,11.1086791 9.06824688,11.4361492 8.92,11.73 L8.92,11.74 Z M20.43,12.89 C19.9763545,13.1973506 19.4377605,13.3547319 18.89,13.34 C18.1968466,13.3833509 17.5154886,13.1454164 17,12.68 C16.5039214,12.106986 16.2431155,11.3674406 16.27,10.61 L24,10.61 C24.0612381,9.81107524 23.9937109,9.00750047 23.8,8.23 C23.6131997,7.51088327 23.2944612,6.83271612 22.86,6.23 C22.42304,5.63165273 21.8508106,5.14508636 21.19,4.81 C20.4540691,4.44544805 19.6411121,4.26364754 18.82,4.28 C18.0542717,4.2712505 17.2950179,4.42105842 16.59,4.72 C15.9359078,4.99567645 15.3441155,5.400408 14.85,5.91 C14.3620939,6.42682779 13.9814303,7.03520971 13.73,7.7 C13.4654386,8.41689229 13.3332937,9.17587807 13.34,9.94 C13.3325284,10.7130991 13.4611564,11.4814823 13.72,12.21 C13.9526365,12.8725635 14.3165646,13.4813777 14.79,14 C15.2792128,14.4984873 15.8689534,14.8871025 16.52,15.14 C17.2467671,15.4212872 18.0207676,15.5604715 18.8,15.55 C19.8888686,15.5803078 20.9628686,15.2918223 21.89,14.72 C22.825665,14.0475592 23.5003687,13.0725946 23.8,11.96 L21.21,11.96 C21.0555756,12.3424916 20.7820752,12.6650818 20.43,12.88 L20.43,12.89 Z M16.43,8.06 C16.5108152,7.78534744 16.6469364,7.53012008 16.83,7.31 C17.0330994,7.06416132 17.2851003,6.86324171 17.57,6.72 C17.93538,6.54814066 18.3364676,6.46586627 18.74,6.48 C19.3510246,6.43929663 19.9517247,6.65279847 20.4,7.07 C20.772768,7.55238259 20.9828496,8.14061113 21,8.75 L16.27,8.75 C16.2894955,8.51286356 16.3330528,8.27832398 16.4,8.05 L16.43,8.06 Z M21.68,1.48 L15.68,1.48 L15.68,2.94 L21.68,2.94 L21.68,1.48 Z" id="Shape"></path>
        </g>
    </g>
</svg>