<?xml version="1.0" encoding="UTF-8"?>
<svg width="16px" height="16px" viewBox="0 0 16 16" version="1.1" xmlns="http://www.w3.org/2000/svg" xmlns:xlink="http://www.w3.org/1999/xlink">
    <!-- Generator: Sketch 60.1 (88133) - https://sketch.com -->
    <title>download</title>
    <desc>Created with Sketch.</desc>
    <g id="download" stroke="none" stroke-width="1" fill="none" fill-rule="evenodd">
        <path d="M11.0390625,14.5625 C12.2519531,14.5625 12.8554688,13.9472656 12.8554688,12.7285156 L12.8554688,7.40820312 C12.8554688,6.65234375 12.7675781,6.32421875 12.2988281,5.84375 L9.0703125,2.55664062 C8.625,2.09960938 8.25585938,2 7.59960938,2 L4.81640625,2 C3.609375,2 3,2.62109375 3,3.83984375 L3,12.7285156 C3,13.953125 3.60351562,14.5625 4.81640625,14.5625 L11.0390625,14.5625 Z M10.9921875,13.6191406 L4.85742188,13.6191406 C4.25390625,13.6191406 3.94335938,13.296875 3.94335938,12.7109375 L3.94335938,3.85742188 C3.94335938,3.27734375 4.25390625,2.94335938 4.86328125,2.94335938 L7.47070312,2.94335938 L7.47070312,6.34765625 C7.47070312,7.0859375 7.83984375,7.44921875 8.57226562,7.44921875 L11.9121094,7.44921875 L11.9121094,12.7109375 C11.9121094,13.296875 11.6015625,13.6191406 10.9921875,13.6191406 Z M11.7304688,6.56445312 L8.67773438,6.56445312 C8.44335938,6.56445312 8.35546875,6.47070312 8.35546875,6.23632812 L8.35546875,3.125 L11.7304688,6.56445312 Z M7.92773438,12.8691406 C8.0390625,12.8691406 8.1328125,12.828125 8.25585938,12.7167969 L9.94335938,11.1640625 C10.0371094,11.0820312 10.0898438,10.9824219 10.0898438,10.8476562 C10.0898438,10.6132812 9.9140625,10.4433594 9.6796875,10.4433594 C9.5625,10.4433594 9.4453125,10.4902344 9.36328125,10.578125 L8.8359375,11.1171875 L8.33789062,11.6328125 L8.37304688,10.6777344 L8.37304688,8.55078125 C8.37304688,8.31054688 8.16796875,8.1171875 7.92773438,8.1171875 C7.6875,8.1171875 7.48242188,8.31054688 7.48242188,8.55078125 L7.48242188,10.6777344 L7.51757812,11.6328125 L7.01953125,11.1171875 L6.4921875,10.578125 C6.41015625,10.4902344 6.28710938,10.4433594 6.17578125,10.4433594 C5.93554688,10.4433594 5.765625,10.6132812 5.765625,10.8476562 C5.765625,10.9824219 5.81835938,11.0820312 5.91210938,11.1640625 L7.59960938,12.7167969 C7.72265625,12.828125 7.81640625,12.8691406 7.92773438,12.8691406 Z" fill="#16161D" fill-rule="nonzero"></path>
    </g>
</svg>