<?xml version="1.0" encoding="UTF-8"?>
<svg width="24px" height="24px" viewBox="0 0 24 24" version="1.1" xmlns="http://www.w3.org/2000/svg" xmlns:xlink="http://www.w3.org/1999/xlink">
    <!-- Generator: Sketch 60.1 (88133) - https://sketch.com -->
    <title>dribbble</title>
    <desc>Created with Sketch.</desc>
    <g id="dribbble" stroke="none" stroke-width="1" fill="none" fill-rule="evenodd">
        <g id="Dribbble" fill="#000000" fill-rule="nonzero">
            <path d="M12,-1.77635684e-15 C5.372583,-1.77635684e-15 -1.77635684e-15,5.372583 -1.77635684e-15,12 C-1.77635684e-15,18.627417 5.372583,24 12,24 C18.627417,24 24,18.627417 24,12 C24,5.372583 18.627417,-1.77635684e-15 12,-1.77635684e-15 Z M19.93,5.53 C21.4062332,7.3303286 22.2214531,9.58188844 22.24,11.91 C19.8932129,11.4440295 17.4897953,11.3327914 15.11,11.58 C15.03,11.41 14.97,11.23 14.89,11.05 C14.68,10.56 14.45,10.05 14.21,9.57 C16.4327457,8.73835872 18.4030346,7.34675607 19.93,5.53 L19.93,5.53 Z M12,1.77 C14.502728,1.77047378 16.9184586,2.68838024 18.79,4.35 C17.3854653,6.05470883 15.5219465,7.32134638 13.42,8 C12.2739179,5.91958264 10.9945853,3.91540614 9.59,2 C10.3819134,1.83154661 11.1905191,1.75437677 12,1.77 Z M7.64,2.77 C9.01162305,4.67741012 10.2801063,6.65691169 11.44,8.7 C8.35508385,9.48893616 5.18418972,9.89201592 2,9.9 C2.66285937,6.76304522 4.74740047,4.11301691 7.64,2.73 L7.64,2.77 Z M1.74,12 L1.74,11.7 C5.30161328,11.7172094 8.84742458,11.2255774 12.27,10.24 C12.57,10.82 12.85,11.4 13.11,11.99 L12.7,12.1 C9.24285093,13.3537169 6.30854153,15.7349812 4.37,18.86 C2.67743487,16.9758607 1.74078545,14.5327371 1.74,12 Z M12,22.2600046 C9.72102614,22.2621739 7.50684009,21.5018175 5.71,20.1 C7.49227097,17.0274697 10.3663684,14.7389027 13.76,13.69 L13.82,13.69 C14.7919309,16.1979755 15.5219171,18.7931098 16,21.44 C14.7358956,21.9812031 13.3750857,22.2601692 12,22.2600046 L12,22.2600046 Z M17.71,20.5 C17.2570992,18.013088 16.5878905,15.5704765 15.71,13.2 C17.843434,12.8828508 20.0203018,13.0329797 22.09,13.64 C21.652046,16.4379886 20.0639212,18.9253257 17.71,20.5 Z" id="Shape"></path>
        </g>
    </g>
</svg>