<?xml version="1.0" encoding="UTF-8"?>
<svg width="24px" height="24px" viewBox="0 0 24 24" version="1.1" xmlns="http://www.w3.org/2000/svg" xmlns:xlink="http://www.w3.org/1999/xlink">
    <!-- Generator: Sketch 60.1 (88133) - https://sketch.com -->
    <title>instagram</title>
    <desc>Created with Sketch.</desc>
    <g id="instagram" stroke="none" stroke-width="1" fill="none" fill-rule="evenodd">
        <g id="Instagram" fill="#000000" fill-rule="nonzero">
            <path d="M12,2.16 C15.2,2.16 15.58,2.16 16.85,2.23 C17.6118664,2.24159908 18.3661127,2.38365444 19.08,2.65 C20.1281669,3.0446027 20.9553973,3.87183315 21.35,4.92 C21.6163456,5.63388727 21.7584009,6.38813357 21.77,7.15 C21.83,8.42 21.84,8.8 21.84,12 C21.84,15.2 21.84,15.58 21.77,16.85 C21.7584009,17.6118664 21.6163456,18.3661127 21.35,19.08 C20.9553973,20.1281669 20.1281669,20.9553973 19.08,21.35 C18.3661127,21.6163456 17.6118664,21.7584009 16.85,21.77 C15.58,21.83 15.2,21.84 12,21.84 C8.8,21.84 8.42,21.84 7.15,21.77 C6.38813357,21.7584009 5.63388727,21.6163456 4.92,21.35 C3.87183315,20.9553973 3.0446027,20.1281669 2.65,19.08 C2.38365444,18.3661127 2.24159908,17.6118664 2.23,16.85 C2.17,15.58 2.16,15.2 2.16,12 C2.16,8.8 2.16,8.42 2.23,7.15 C2.24159908,6.38813357 2.38365444,5.63388727 2.65,4.92 C3.0446027,3.87183315 3.87183315,3.0446027 4.92,2.65 C5.63388727,2.38365444 6.38813357,2.24159908 7.15,2.23 C8.42,2.17 8.8,2.16 12,2.16 M12,0 C8.74,0 8.33,0 7.05,0.07 C6.0552363,0.0900523812 5.07115858,0.279428162 4.14,0.63 C2.52321187,1.24626176 1.24626176,2.52321187 0.63,4.14 C0.279428162,5.07115858 0.0900523812,6.0552363 0.07,7.05 C0,8.33 0,8.74 0,12 C0,15.26 0,15.67 0.07,16.95 C0.0900523812,17.9447637 0.279428162,18.9288414 0.63,19.86 C1.24626176,21.4767881 2.52321187,22.7537382 4.14,23.37 C5.07115858,23.7205718 6.0552363,23.9099476 7.05,23.93 C8.33,24 8.74,24 12,24 C15.26,24 15.67,24 16.95,23.93 C17.9447637,23.9099476 18.9288414,23.7205718 19.86,23.37 C21.4767881,22.7537382 22.7537382,21.4767881 23.37,19.86 C23.7150489,18.9446224 23.9043344,17.9779142 23.93,17 C24,15.67 24,15.26 24,12 C24,8.74 24,8.33 23.93,7.05 C23.9099476,6.0552363 23.7205718,5.07115858 23.37,4.14 C22.7537382,2.52321187 21.4767881,1.24626176 19.86,0.63 C18.9446224,0.284951113 17.9779142,0.0956655908 17,0.07 C15.67,0 15.26,0 12,0 Z M12,5.84 C8.59792594,5.84 5.84,8.59792594 5.84,12 C5.84,15.4020741 8.59792594,18.16 12,18.16 C15.4020741,18.16 18.16,15.4020741 18.16,12 C18.16,10.3662664 17.5110019,8.79944632 16.3557778,7.64422223 C15.2005537,6.48899814 13.6337336,5.84 12,5.84 L12,5.84 Z M12,16 C9.790861,16 8,14.209139 8,12 C8,9.790861 9.790861,8 12,8 C14.209139,8 16,9.790861 16,12 C16,14.209139 14.209139,16 12,16 Z M18.41,4.15 C17.61471,4.15 16.97,4.79470996 16.97,5.59 C16.97,6.38529004 17.61471,7.03 18.41,7.03 C19.20529,7.03 19.85,6.38529004 19.85,5.59 C19.85,4.79470996 19.20529,4.15 18.41,4.15 Z" id="Shape"></path>
        </g>
    </g>
</svg>