<?xml version="1.0" encoding="UTF-8"?>
<svg width="16px" height="24px" viewBox="0 0 16 24" version="1.1" xmlns="http://www.w3.org/2000/svg" xmlns:xlink="http://www.w3.org/1999/xlink">
    <title>introarrow</title>
    <g id="introarrow" stroke="none" stroke-width="1" fill="none" fill-rule="evenodd">
        <path d="M10.8590755,17 L16,12.0174825 L10.8410372,7 L10.2818489,7.55944056 C10.1676062,7.67599068 10.1225103,7.79254079 10.1465614,7.90909091 C10.1706126,8.02564103 10.2367531,8.13636364 10.3449831,8.24125874 L10.3449831,8.24125874 L12.951522,10.75 C13.0958286,10.8898601 13.2326193,11.0151515 13.361894,11.1258741 C13.4911687,11.2365967 13.6159339,11.3385781 13.7361894,11.4318182 C13.4355505,11.3910256 13.1168734,11.3589744 12.7801578,11.3356643 C12.4434423,11.3123543 12.0977076,11.3006993 11.7429538,11.3006993 L11.7429538,11.3006993 L0,11.3006993 L0,12.7255245 L11.7429538,12.7255245 C12.0977076,12.7255245 12.4419391,12.7138695 12.7756483,12.6905594 C13.1093574,12.6672494 13.4265314,12.6351981 13.7271702,12.5944056 C13.6069147,12.6876457 13.4836528,12.789627 13.3573844,12.9003497 C13.2311161,13.0110723 13.0958286,13.1363636 12.951522,13.2762238 L12.951522,13.2762238 L10.3630214,15.7674825 C10.2608042,15.8723776 10.1961669,15.9831002 10.1691094,16.0996503 C10.1420519,16.2162005 10.1886509,16.3327506 10.3089064,16.4493007 L10.3089064,16.4493007 L10.8590755,17 Z" id="→" fill="#333333" fill-rule="nonzero"></path>
    </g>
</svg>