<?xml version="1.0" encoding="UTF-8"?>
<svg width="32px" height="32px" viewBox="0 0 32 32" version="1.1" xmlns="http://www.w3.org/2000/svg" xmlns:xlink="http://www.w3.org/1999/xlink">
    <!-- Generator: Sketch 60.1 (88133) - https://sketch.com -->
    <title>pdf</title>
    <desc>Created with Sketch.</desc>
    <g id="pdf" stroke="none" stroke-width="1" fill="none" fill-rule="evenodd">
        <g id="noun_PDF_377198" transform="translate(4.000000, 0.000000)" fill-rule="nonzero">
            <path d="M0.980637813,25.5019531 C1.61446469,25.5019531 1.97323462,25.1001349 1.97323462,24.4015895 L1.97323462,22.7448622 L3.28872437,22.7448622 C5.16030752,22.7448622 6.3083713,21.7124986 6.3083713,19.8641349 C6.3083713,18.127044 5.17824601,17.0019531 3.39037585,17.0019531 L1.29157175,17.0019531 C0.358769932,17.0019531 0,17.3914077 0,18.399044 L0,24.4015895 C0,25.1063168 0.352790433,25.5019531 0.980637813,25.5019531 Z M2.87613895,21.2241349 L1.97921412,21.2241349 L1.97921412,18.5783168 L3.09738041,18.5783168 C3.90461276,18.5783168 4.35307517,19.0604986 4.35307517,19.9012259 C4.35307517,20.8779531 3.89863326,21.2241349 2.87613895,21.2241349 Z M10.547836,25.4401349 C12.9515945,25.4401349 14.2371868,23.9688622 14.2371868,21.2179531 C14.2371868,18.4732259 12.9515945,17.0019531 10.547836,17.0019531 L8.49686788,17.0019531 C7.74943052,17.0019531 7.3428246,17.4099531 7.3428246,18.1703168 L7.3428246,24.2717713 C7.3428246,25.0321349 7.74943052,25.4401349 8.49686788,25.4401349 L10.547836,25.4401349 Z M10.2428815,23.8143168 L9.32203872,23.8143168 L9.32203872,18.6215895 L10.2428815,18.6215895 C11.6002278,18.6215895 12.2161162,19.4314077 12.2161162,21.2179531 C12.2161162,23.0106804 11.6002278,23.8143168 10.2428815,23.8143168 Z M16.4316629,25.5019531 C17.0535308,25.5019531 17.4003417,25.1063168 17.4003417,24.4015895 L17.4003417,22.2626804 L19.9117312,22.2626804 C20.3781321,22.2626804 20.6950456,21.9412259 20.6950456,21.4652259 C20.6950456,20.9892259 20.3841116,20.6677713 19.9117312,20.6677713 L17.4003417,20.6677713 L17.4003417,18.6401349 L20.2166856,18.6401349 C20.6711276,18.6401349 21,18.3063168 21,17.8303168 C21,17.3481349 20.6711276,17.0019531 20.2166856,17.0019531 L16.5632118,17.0019531 C15.821754,17.0019531 15.4211276,17.4161349 15.4211276,18.1703168 L15.4211276,24.4015895 C15.4211276,25.0939531 15.7918565,25.5019531 16.4316629,25.5019531 Z" id="PDF" fill="#16161D"></path>
            <path d="M23,7.586 L16.414,1 C15.836,0.42 14.82,0 14,0 L3,0 C1.346,0 0,1.346 0,3 L0,13 C0,13.553 0.447,14 1,14 C1.553,14 2,13.553 2,13 L2,3 C2,2.449 2.448,2 3,2 L12,2 C13.105,2 14,2.896 14,4 L14,7.75 C14,8.988 15.014,10 16.25,10 L20,10 C21.105,10 22,10.896 22,12 L22,29 C22,29.551 21.553,30 21,30 L3,30 C2.448,30 2,29.551 2,29 C2,28.447 1.553,28 1,28 C0.447,28 0,28.447 0,29 C0,30.654 1.346,32 3,32 L21,32 C22.654,32 24,30.654 24,29 L24,10 C24,9.181 23.58,8.165 23,7.586 Z" id="Path" fill="#000000"></path>
        </g>
    </g>
</svg>