<svg version="1" xmlns="http://www.w3.org/2000/svg" width="682.667" height="682.667" viewBox="0 0 512.000000 512.000000"><path d="M248.1 72c-8.5 2.8-5.5-1.1-56.6 74.5-7 10.4-13.5 19.8-14.4 20.8-1.3 1.4-19.9 7-30.1 9.2-.8.2-6.7 1.7-13 3.3-6.3 1.7-21.4 5.6-33.5 8.7-34.2 8.7-36.7 9.8-42.1 18.5-2.3 3.8-2.8 5.6-2.8 11.5 0 8.4 1.8 12.4 9.4 20.5 2.8 3 7.4 8 10.2 11 2.8 3 8.3 8.9 12.2 13 3.9 4.2 12.3 13.2 18.8 20 27.2 29.1 24.5 25.3 22.8 32.5-.5 2.2-1.1 5.1-1.3 6.5-.3 1.4-.8 3.6-1.1 5-.3 1.4-.8 3.6-1 5-.5 2.5-4.6 22.7-5 24.5-.4 1.8-2.5 11.9-3 14.5-.3 1.4-1.4 7-2.6 12.5-1.1 5.5-2.3 11.3-2.6 13-.2 1.6-.7 3.7-.9 4.5-.2.8-.6 2.6-.9 4-.3 1.4-1 4.2-1.5 6.3-1.2 5.1-.7 13.4 1.2 17.8 3.6 8.2 12.4 13.8 21.5 13.9 5.1 0 27.6-8.1 86.2-30.9 5.8-2.2 10.8-4.1 11.3-4.1.4 0 2.6-.9 5-1.9 5.4-2.4 18-7.1 19.1-7.1.5 0 5.2 1.5 10.5 3.4s31 10.9 57.1 20.1c26.1 9.1 48.8 17.1 50.4 17.7 4.5 1.8 13.3 1.2 18-1.3 5.9-3 8.5-5.7 11.2-11.4 2.8-5.8 3-10.1.9-20.9-.8-4.4-1.7-9.1-2-10.5-.2-1.4-1.8-9.8-3.5-18.6s-3.3-17.4-3.6-19c-.2-1.7-.7-4.1-1-5.5-.3-1.4-.8-3.6-1-5-.3-1.4-2.1-11-4-21.4l-3.5-18.9 4.8-5c2.6-2.7 5.5-5.7 6.3-6.7.8-.9 6.3-6.8 12.1-13.1 5.9-6.3 12.1-13 13.9-14.9 1.8-1.9 8.3-8.9 14.5-15.5 18.5-19.8 19.3-20.7 21.1-26.3 3.7-12-2.5-25.4-13.9-29.5-2.3-.8-11.6-3.4-20.7-5.7-9.1-2.3-17.8-4.6-19.5-5.1-3.3-.9-17-4.5-43.9-11.4-9.8-2.6-18.8-5-20.1-5.5-1.4-.5-7.8-8.9-16.7-22-7.8-11.6-14.7-21.8-15.3-22.7-.5-.9-1.8-2.6-2.7-3.7-1-1.1-1.8-2.5-1.8-3.2 0-.7-.4-1.4-.8-1.6-.4-.2-6.1-8.2-12.6-17.8-6.5-9.6-13-18.7-14.4-20.3-6.1-6.4-16.2-8.7-25.1-5.7z"/></svg>