<?xml version="1.0" standalone="no"?>
<!DOCTYPE svg PUBLIC "-//W3C//DTD SVG 20010904//EN"
 "http://www.w3.org/TR/2001/REC-SVG-20010904/DTD/svg10.dtd">
<svg version="1.0" xmlns="http://www.w3.org/2000/svg"
 width="700.000000pt" height="700.000000pt" viewBox="0 0 700.000000 700.000000"
 preserveAspectRatio="xMidYMid meet">
<metadata>
Created by potrace 1.11, written by Peter Selinger 2001-2013
</metadata>
<g transform="translate(0.000000,700.000000) scale(0.100000,-0.100000)"
fill="#000000" stroke="none">
<path d="M3325 6655 c-37 -132 -99 -350 -137 -485 -38 -135 -71 -252 -73 -260
-3 -13 -151 -540 -336 -1200 -34 -118 -101 -357 -149 -530 -95 -339 -363
-1294 -436 -1555 -25 -88 -51 -182 -59 -210 -8 -27 -44 -156 -80 -285 -81
-289 -132 -469 -150 -535 -64 -223 -77 -272 -80 -285 -2 -8 -26 -94 -53 -190
-70 -243 -72 -254 -63 -244 5 5 43 50 86 99 42 50 91 106 109 126 17 20 51 60
76 89 25 30 52 61 60 70 8 8 67 76 130 150 121 142 165 193 190 220 8 8 62 72
120 140 57 69 109 130 115 136 6 6 31 35 56 64 24 29 49 58 54 64 6 6 23 27
39 46 15 19 48 58 71 85 24 28 66 77 94 110 109 128 131 242 56 291 -24 16
-76 29 -155 40 -19 2 -62 9 -95 15 -33 7 -69 13 -80 14 -22 3 -45 7 -190 31
-55 9 -110 17 -122 17 -35 3 -16 12 107 51 299 95 699 231 734 248 50 25 84
62 107 117 24 55 200 668 215 750 11 56 20 36 65 -145 119 -473 137 -520 209
-557 40 -21 81 -17 156 12 49 20 379 141 571 209 98 35 102 38 96 62 -3 14
-30 111 -60 215 -30 105 -57 199 -59 210 -2 11 -12 49 -23 85 -11 36 -45 155
-75 265 -31 110 -110 394 -177 630 -66 237 -127 453 -134 480 -8 28 -26 93
-40 145 -15 52 -31 109 -35 125 -5 17 -27 95 -50 175 -23 80 -52 183 -64 230
-64 232 -250 896 -253 900 -2 2 -53 5 -112 5 l-108 1 -68 -241z"/>
<path d="M5788 6896 c-1 -2 -30 -6 -63 -9 -180 -18 -372 -101 -496 -216 l-41
-37 122 -195 c67 -107 123 -195 125 -197 1 -1 29 17 61 41 127 93 228 131 349
132 93 0 144 -22 193 -80 81 -98 81 -240 2 -476 -54 -161 -97 -254 -495 -1064
-278 -565 -349 -710 -350 -715 -1 -3 -20 -43 -43 -89 -23 -46 -42 -85 -42 -87
0 -1 348 -1 773 -1 l772 2 0 235 0 235 -377 3 -377 2 196 393 c429 862 484
993 519 1232 10 64 3 230 -11 299 -35 167 -92 275 -205 388 -63 61 -96 85
-171 122 -52 25 -105 47 -119 50 -14 2 -47 9 -74 16 -46 10 -240 23 -248 16z"/>
<path d="M4301 3033 c-167 -169 -315 -328 -329 -352 -37 -63 -37 -136 0 -211
39 -80 158 -296 284 -516 35 -61 64 -113 64 -116 0 -3 -105 64 -232 149 -300
200 -363 229 -477 225 -64 -2 -126 -37 -302 -169 -86 -65 -168 -127 -183 -138
-16 -11 -63 -47 -106 -80 -43 -33 -146 -112 -230 -175 -83 -63 -157 -120 -163
-125 -7 -6 -41 -33 -77 -60 -36 -27 -72 -55 -80 -62 -32 -25 -782 -605 -788
-608 -1 -1 -32 -107 -68 -236 -36 -129 -78 -279 -94 -334 -16 -55 -27 -101
-25 -103 5 -5 1036 -5 1039 0 3 3 96 362 102 393 2 11 10 40 18 65 15 50 7 45
201 136 66 31 163 76 215 101 52 25 124 59 160 75 36 17 101 47 145 68 152 71
230 108 315 148 47 22 162 75 255 119 94 44 180 83 191 87 20 6 23 0 44 -81
24 -95 28 -115 36 -152 3 -14 7 -28 10 -33 3 -4 7 -17 9 -27 2 -11 15 -64 30
-118 15 -54 28 -105 30 -113 1 -8 15 -59 30 -113 14 -53 28 -105 30 -115 2 -9
20 -80 40 -157 20 -77 39 -147 41 -155 11 -47 33 -123 38 -127 2 -3 237 -6
521 -6 l516 -2 -6 25 c-3 14 -12 48 -20 75 -19 65 -235 836 -240 855 -4 15
-82 296 -150 535 -18 66 -65 233 -104 370 -38 138 -110 394 -159 570 -50 176
-116 412 -147 525 -31 113 -62 220 -69 238 l-12 33 -303 -308z"/>
</g>
</svg>
