<svg xmlns="http://www.w3.org/2000/svg" width="256" height="128" viewBox="0 0 2048 1024">
  <defs>
    <style>
      .cls-1 {
        fill: #16161d;
        fill-rule: evenodd;
      }
    </style>
  </defs>
  <path class="cls-1" d="M518.744,947.193l-114.591,14.07L353.26,833.454l-154.337,96.5-7.74,57.457L76.469,1001.5l11.61-75.791c37.624-37.4,140.187-139.027,179.379-175.088a19.177,19.177,0,0,1,1.84-1.629c0.581-.453,1.305-0.8,1.887-1.253,13.68-9.079,30.484-3.1,41.745,2.4,25.488,12.306,53,26.528,53,26.528s-28.916-38.159-47.652-65.067c-7.107-10.1-8.17-19.788,1.829-32.877,11.2-14.769,40.294-52.016,55.929-72.175ZM373.174,599.882c-21.238,10.9-62.153,31.868-77.432,39.356-7.827,3.767-16.281-.68-20.268-8.227-7.49-14.258-28.708-70.71-28.708-70.71S238.5,621.778,233.6,646.229c-2.651,12.7-5.581,16.886-18.078,23.14-25.131,12.4-85.267,39.934-85.267,39.934s39.485,1.656,68.422,2.569c15.888,0.6,16.876,15.911,6.9,31.3C181.9,779.875,118.794,873.594,89.431,917L194.513,234.442l24.25-2.977ZM804.882,777.364a132.268,132.268,0,0,1-5.181,57.524,138.1,138.1,0,0,1-27.175,48.746,155.227,155.227,0,0,1-45.517,35.437,177.75,177.75,0,0,1-59.643,18.036c-23.372,2.87-45.131,2.225-64.624-1.759a250,250,0,0,1-54.18-17.454l-10.118-4.5,29.4-98.13,13.584,6.754a141.489,141.489,0,0,0,37,12.547,119.691,119.691,0,0,0,38.325,1.544c14.7-1.805,25.688-6.852,33.573-15.346,7.3-8.039,10.181-17.831,8.684-30.02a39.706,39.706,0,0,0-5.9-16.879,78.053,78.053,0,0,0-13.327-16.093,125.956,125.956,0,0,0-18.794-14.912c-7.5-4.949-15.241-9.864-23.253-14.875l-32.945-20.062c-28.635-17.148-51.188-36.7-66.827-58.124a156.114,156.114,0,0,1-29.075-73.725,130.669,130.669,0,0,1,4.4-53.476,136.492,136.492,0,0,1,24.835-47.054,148.273,148.273,0,0,1,42.611-35.207c16.835-9.336,36.241-15.42,57.476-18.027a232.255,232.255,0,0,1,52.978-.637,226.986,226.986,0,0,1,54.284,13.105l11.344,4.092L725.046,542.648l-13.69-7.629a102,102,0,0,0-31.536-11.691c-17.36-3.227-36.266-2.433-48.355,4.024a34.341,34.341,0,0,0-11.135,9.021,33.292,33.292,0,0,0-6.132,11.339,32.282,32.282,0,0,0-.972,12.875c0.926,7.539,4.351,14.646,10.443,21.676,6.7,7.852,18.7,17.221,35.3,27.81L696.993,634.1a403.581,403.581,0,0,1,44.961,32.745,215.853,215.853,0,0,1,32.288,33.409,155.45,155.45,0,0,1,20.569,36.633A170.83,170.83,0,0,1,804.882,777.364Zm268.518,6.573,12.56,102.285-13.27.99c-57.36,4.492-103.113-8.767-135.972-39.554-32.562-30.442-53.135-79.574-61.312-146.173L851.337,505.457l-34.929,4.289-12.188-99.27,34.928-4.289L819.939,249.743,923.723,237l19.209,156.445,75.138-9.225,12.19,99.27-75.139,9.225L979.3,689.621c2.052,16.713,5.114,31.26,9.263,43.251,3.934,11.251,9.031,20.575,15.529,27.813a59.506,59.506,0,0,0,23.11,15.785c9.67,3.914,21.67,6.14,35.54,6.86Zm245.8-444.346L1332.37,446.9l-12.56,1.542c-22.24,2.731-41.92,7.572-58.32,14.3a86.362,86.362,0,0,0-35.15,26.381l44.9,365.667L1165.32,867.8,1102.2,353.735l85.78,45.209a245.638,245.638,0,0,1,50.76-36.336,195.582,195.582,0,0,1,67.89-21.474Zm386.5,99.1c-13.67-30.337-30.42-55.578-49.64-75.028-19.51-19.672-41.26-33.712-64.45-41.833a156.048,156.048,0,0,0-138.34,16.986c-20.66,13.5-38.36,32.389-52.53,56.2-13.95,23.523-24.09,52.065-30.01,84.809-5.95,32.618-6.3,70.289-1.18,112.008s14.58,78.186,28.24,108.4c13.68,30.461,30.43,55.7,49.65,75.154,19.51,19.671,41.26,33.711,64.57,41.816a155.765,155.765,0,0,0,138.34-16.985c20.53-13.49,38.24-32.374,52.41-56.18,13.95-23.524,24.09-52.067,30-84.935,5.94-32.618,6.29-70.29,1.17-112.007S1719.36,468.905,1705.7,438.693Zm-79.07,121.573c3.62,29.53,4.2,54.97,1.78,75.8-2.35,20.313-6.69,36.916-12.78,49.655-5.93,11.953-12.86,20.967-20.69,26.776-15.8,11.506-32.39,13.543-50.51,6.2-9-3.741-17.91-10.811-26.55-20.974-8.99-10.888-17.22-25.948-24.41-45.089-7.39-19.631-12.99-44.454-16.61-73.984-3.61-29.4-4.19-54.844-1.74-75.427,2.37-20.187,6.69-36.917,12.78-49.656,5.9-12.2,12.81-21.343,20.66-27.026,7.96-5.824,15.85-9.09,24.39-10.138s16.99,0.211,26.12,3.937c8.99,3.615,17.91,10.811,26.58,21.224,8.99,10.888,17.23,26.075,24.42,45.09C1617.42,506.039,1623.02,530.862,1626.63,560.266Zm389.29-174.2,8.63,70.243L1802.28,483.6,1884.66,238.4c15.79-46.965,22.43-81.2,19.91-101.681a52.409,52.409,0,0,0-4.31-15.414,41.005,41.005,0,0,0-8.39-12.236,30.517,30.517,0,0,0-12-7.328c-9.21-3.334-22.31-1.98-38.5,5.363-7.97,3.659-16.03,9.624-24.12,17.5l-10.02,9.776-42.88-54.175,7.07-7.883a119.232,119.232,0,0,1,39.73-29.622c31.18-14.034,64.84-17.274,91.64-9.851a97.121,97.121,0,0,1,38,19.7A104.286,104.286,0,0,1,1967,86.324a135.536,135.536,0,0,1,12.77,43.714,157.844,157.844,0,0,1,.76,31.157,247.874,247.874,0,0,1-5.38,33.059c-2.8,11.441-6.44,24.388-11,38.211-4.44,13.684-9.64,29.5-15.61,47.328l-40.8,119.552Z"/>
</svg>
