<?xml version="1.0" encoding="UTF-8"?>
<svg width="472px" height="148px" viewBox="0 0 472 148" version="1.1" xmlns="http://www.w3.org/2000/svg" xmlns:xlink="http://www.w3.org/1999/xlink">
    <title>astroastro-short</title>
    <g id="Page-1" stroke="none" stroke-width="1" fill="none" fill-rule="evenodd">
        <g id="astroastro-short" fill-rule="nonzero">
            <rect id="Rectangle" fill="#FF9933" x="420.96" y="0" width="50.24" height="147.7"></rect>
            <rect id="Rectangle" fill="#FF3333" x="371.73" y="0" width="50.24" height="147.7"></rect>
            <rect id="Rectangle" fill="#0099CC" x="322.49" y="0" width="50.24" height="147.7"></rect>
            <path d="M56.88,0 L114.45,0 L171.33,147.7 L113.53,147.7 L103,120.18 L68.35,120.18 L57.8,147.7 L0,147.7 L56.88,0 Z M96.79,82.34 L85.55,54.12 L74.31,82.34 L96.79,82.34 Z" id="Shape" fill="#16161D"></path>
            <path d="M175.78,0 L175.78,147.71 L323.49,147.71 L323.49,0 L175.78,0 Z M249.39,72.75 L184.25,72.75 L184.25,58.75 C186.095934,56.5781524 188.126888,54.5706191 190.32,52.75 C192.226667,51.2233333 194.866667,49.3133333 198.24,47.02 C202.24,44.42 204.723333,42.5433333 205.69,41.39 C206.672951,40.2913621 207.208188,38.8640651 207.19,37.39 C207.310505,36.0702279 206.56775,34.8228824 205.35,34.3 C203.583978,33.6722622 201.711964,33.397066 199.84,33.49 C197.386456,33.572265 194.956377,33.9963508 192.62,34.75 C189.964121,35.5277879 187.391617,36.5661684 184.94,37.85 L184.94,12.85 C189.63768,11.2098388 194.469263,9.98186721 199.38,9.18 C205.210617,8.12050983 211.123915,7.58172033 217.05,7.57 C227.136667,7.57 234.97,9.40666667 240.55,13.08 C246.13,16.7533333 248.923333,21.7266667 248.93,28 C249.035242,30.9980992 248.44303,33.9796978 247.2,36.71 C245.855145,39.2576283 244.02793,41.5195709 241.82,43.37 L235.62,48.37 L249.39,48.37 L249.39,72.75 Z" id="Shape" fill="#16161D"></path>
        </g>
    </g>
</svg>