<svg xmlns="http://www.w3.org/2000/svg" viewBox="0 0 922.2 150"><defs><style>.cls-1{fill:#f93;}.cls-2{fill:#f33;}.cls-3{fill:#09c;}.cls-4{fill:#16161d;}</style></defs><title>astroastro</title><g id="Layer_2" data-name="Layer 2"><g id="Layer_2-2" data-name="Layer 2"><rect class="cls-1" x="871.96" width="50.24" height="147.7"/><rect class="cls-2" x="822.73" width="50.24" height="147.7"/><rect class="cls-3" x="773.49" width="50.24" height="147.7"/><path class="cls-4" d="M56.88,0h57.57l56.88,147.7h-57.8L103,120.18H68.35L57.8,147.7H0ZM96.79,82.34,85.55,54.12,74.31,82.34Z"/><path class="cls-4" d="M196.54,147.82q-13.87-2.17-21.21-5.62V107.11q7.56,4.13,19.49,6.65a99.68,99.68,0,0,0,20,2.52,90.41,90.41,0,0,0,9.64-.34c1.83-.23,2.75-1,2.75-2.18,0-.92-1-1.76-2.87-2.52a66,66,0,0,0-8.59-2.53q-12.16-3.66-13.08-3.9-15.36-5.73-21.79-12.73t-6.42-19.83q0-35.55,58.71-35.55a207.08,207.08,0,0,1,24.43,1.6q13.43,1.61,20.3,3.9V77.06A96.36,96.36,0,0,0,262,72.25a71.16,71.16,0,0,0-14.9-1.84,117.65,117.65,0,0,0-11.93.46q-4.12.47-4.13,2.52,0,1.15,2.52,2.07T242.3,78a111.39,111.39,0,0,1,11.24,2.75q11.93,3.43,18.46,7.69a23.65,23.65,0,0,1,9.17,10.2q2.64,6,2.64,15.14,0,17-14.91,26.6T225.79,150A188.81,188.81,0,0,1,196.54,147.82Z"/><path class="cls-4" d="M300.14,105V78.9H287.07V39h13.07V17.66l55.5-11.24V39h22.25L376.75,78.9H355.64v23.16q0,9.63,10.78,9.63a42,42,0,0,0,13.77-2.29v34.4Q365.73,150,346.47,150,300.14,150,300.14,105Z"/><path class="cls-4" d="M389,39h54.36l1.16,6.19a73.34,73.34,0,0,1,16.16-6,79,79,0,0,1,19.84-2.52V77.52a166.16,166.16,0,0,0-19.61,1.26,82.36,82.36,0,0,0-16.39,3.33V147.7H389Z"/><path class="cls-4" d="M484.4,93.34q0-56.64,68.35-56.64,68.58,0,68.58,56.64T552.75,150Q484.4,150,484.4,93.34Zm77.41,13.19q2.87-3.78,2.87-13.19t-2.87-13.18c-1.92-2.53-4.93-3.79-9.06-3.79s-6.92,1.26-8.83,3.79-2.86,6.92-2.86,13.18,1,10.67,2.86,13.19,4.85,3.79,8.83,3.79S559.89,109.05,561.81,106.53Z"/><path class="cls-4" d="M626.78,0V147.71H774.49V0Zm73.61,72.75H635.25v-14a49.26,49.26,0,0,1,6.07-6q2.86-2.29,7.92-5.73,6-3.9,7.45-5.63a5.89,5.89,0,0,0,1.5-4,3.06,3.06,0,0,0-1.84-3.09,14.33,14.33,0,0,0-5.51-.81,26.4,26.4,0,0,0-7.22,1.26,42,42,0,0,0-7.68,3.1v-25a85.71,85.71,0,0,1,14.44-3.67,99.94,99.94,0,0,1,17.67-1.61q15.13,0,23.5,5.51T699.93,28a19.38,19.38,0,0,1-1.73,8.71,22.23,22.23,0,0,1-5.38,6.66l-6.2,5h13.77Z"/></g></g></svg>